<?xml version="1.0" standalone="no"?>
<!DOCTYPE svg PUBLIC "-//W3C//DTD SVG 20010904//EN"
 "http://www.w3.org/TR/2001/REC-SVG-20010904/DTD/svg10.dtd">
<svg version="1.0" xmlns="http://www.w3.org/2000/svg"
 width="900.000000pt" height="527.000000pt" viewBox="0 0 900.000000 527.000000"
 preserveAspectRatio="xMidYMid meet">

<g transform="translate(0.000000,527.000000) scale(0.100000,-0.100000)"
fill="#000000" stroke="none">
<path d="M4318 5256 c-123 -45 -182 -154 -181 -331 0 -64 6 -107 21 -150 11
-33 39 -112 61 -175 23 -63 44 -137 47 -163 7 -46 8 -48 33 -42 14 3 127 10
251 14 193 7 234 11 285 29 164 60 258 177 241 300 -13 97 -98 198 -200 237
-44 17 -142 18 -177 1 -13 -6 -16 1 -17 35 -3 60 -32 118 -86 167 -83 77 -197
109 -278 78z"/>
<path d="M5137 4510 c-140 -35 -260 -153 -273 -267 l-6 -49 -57 29 c-51 26
-63 28 -141 25 -101 -5 -172 -34 -249 -104 -73 -66 -106 -139 -106 -234 1
-105 40 -189 133 -279 124 -120 219 -162 470 -205 148 -26 303 -65 344 -87 11
-6 21 -9 22 -7 1 2 17 44 35 93 18 50 68 156 112 236 104 193 131 274 137 409
2 60 -1 129 -7 160 -25 122 -91 214 -186 260 -54 26 -164 36 -228 20z"/>
<path d="M4518 3316 c-171 -70 -283 -231 -324 -468 -31 -178 -13 -299 95 -624
47 -143 88 -315 93 -396 2 -29 7 -37 19 -33 90 29 355 55 560 55 134 0 257 21
369 64 121 45 190 88 282 175 129 122 185 266 159 408 -50 272 -384 471 -603
360 l-43 -22 -1 75 c-1 137 -72 257 -201 343 -134 89 -285 112 -405 63z"/>
<path d="M4395 1650 c-66 -13 -149 -48 -211 -89 -67 -43 -156 -135 -185 -192
-30 -60 -52 -158 -45 -205 l5 -43 -45 21 c-167 73 -381 20 -539 -135 -158
-157 -195 -340 -104 -526 43 -89 175 -219 282 -280 90 -51 214 -95 307 -111
36 -6 180 -15 320 -20 228 -8 439 -31 500 -55 12 -4 19 14 33 92 19 103 67
251 161 497 75 195 89 261 89 421 0 157 -18 249 -71 360 -100 206 -289 307
-497 265z"/>
</g>
</svg>
